<svg width="91" height="116" viewBox="0 0 91 116" fill="none" xmlns="http://www.w3.org/2000/svg">
<g id="Logo">
<g id="Group">
<path id="Vector" d="M30.7203 115.352H20.5473L11.2896 103.172H8.30108V115.352H0V82.1343H13.3628C15.2072 82.1343 16.8144 82.2501 18.1819 82.4789C19.5493 82.7105 20.8147 83.1902 21.9754 83.918C23.1664 84.6762 24.1093 85.6411 24.8095 86.8073C25.507 87.9762 25.8571 89.4594 25.8571 91.2569C25.8571 93.7988 25.2837 95.8637 24.1396 97.449C22.9927 99.0342 21.4626 100.294 19.5438 101.231L30.7203 115.352ZM17.2914 92.3073C17.2914 91.4747 17.1315 90.7579 16.8117 90.1542C16.4919 89.5531 15.9598 89.0872 15.2154 88.7592C14.6944 88.5358 14.1154 88.3952 13.4758 88.3346C12.8362 88.2767 12.0395 88.2464 11.0883 88.2464H8.29832V97.1926H10.6858C11.8465 97.1926 12.8307 97.1236 13.6412 96.9803C14.4518 96.8397 15.1382 96.5392 15.7062 96.076C16.241 95.6597 16.638 95.1607 16.8999 94.5818C17.1591 94.0028 17.2914 93.2447 17.2914 92.3073Z" fill="black"/>
<path id="Vector_2" d="M54.1624 105.604C54.1624 107.046 53.917 108.405 53.4263 109.676C52.9356 110.947 52.1912 112.03 51.196 112.921C50.0794 113.932 48.7644 114.677 47.2481 115.151C45.7317 115.628 43.9839 115.865 42.0044 115.865C40.5322 115.865 39.1482 115.81 37.8552 115.697C36.5622 115.587 35.4236 115.424 34.4422 115.217V108.479H35.2003C35.8703 108.747 36.5678 108.995 37.2983 109.226C38.0262 109.458 38.9635 109.571 40.1104 109.571C41.5826 109.571 42.7157 109.361 43.5124 108.945C44.3092 108.529 44.8688 107.95 45.1969 107.206C45.5388 106.478 45.729 105.634 45.7648 104.675C45.8007 103.715 45.82 102.648 45.82 101.474V88.1552H38.2136V82.1313H54.1652V105.601L54.1624 105.604Z" fill="black"/>
<path id="Vector_3" d="M79.5013 116C74.5195 116 70.5634 114.495 67.6327 111.482C64.7021 108.471 63.2382 104.234 63.2382 98.775C63.2382 93.3163 64.7077 89.3132 67.6438 86.1814C70.5799 83.0495 74.5416 81.4863 79.5233 81.4863C80.8467 81.4863 82.0376 81.5608 83.0935 81.7096C84.1494 81.8585 85.1612 82.0653 86.1289 82.3355C86.8871 82.5588 87.7141 82.8648 88.6046 83.2508C89.4979 83.6367 90.2174 83.9731 90.7688 84.2543V92.1749H89.9224C89.5199 91.8193 89.0154 91.3892 88.4061 90.8929C87.7969 90.3939 87.1049 89.9087 86.3302 89.4318C85.5555 88.9548 84.7036 88.5496 83.7745 88.216C82.8454 87.8824 81.875 87.7142 80.8632 87.7142C79.6584 87.7142 78.5529 87.9044 77.5494 88.2821C76.5459 88.6626 75.5892 89.3187 74.6822 90.2561C73.8496 91.1052 73.1686 92.2493 72.6421 93.6912C72.1127 95.1331 71.8508 96.8369 71.8508 98.7998C71.8508 100.867 72.1265 102.604 72.6751 104.01C73.2265 105.416 73.9461 106.549 74.8393 107.412C75.7022 108.245 76.6644 108.849 77.7286 109.218C78.7928 109.59 79.8514 109.775 80.9073 109.775C81.9632 109.775 83.055 109.593 84.053 109.229C85.0482 108.865 85.8891 108.46 86.5728 108.013C87.3171 107.553 87.9705 107.084 88.5357 106.607C89.1009 106.13 89.5916 105.709 90.0079 105.336H90.7661V113.144C90.1568 113.428 89.451 113.751 88.646 114.114C87.8437 114.478 87.0166 114.787 86.1703 115.041C85.1282 115.352 84.155 115.589 83.2479 115.755C82.3409 115.917 81.092 116 79.5013 116Z" fill="black"/>
</g>
<g id="Group_2">
<path id="Vector_4" d="M45.6105 27.3403H47.768C47.9908 27.3403 48.1942 27.4687 48.291 27.6696C48.3879 27.8706 48.3613 28.1103 48.2208 28.2847L47.291 29.4518L46.0633 30.9919C45.9519 31.1299 45.7849 31.2122 45.6081 31.2122C45.4313 31.2122 45.2642 31.1323 45.1529 30.9919L43.9252 29.4518L42.9954 28.2847C42.8549 28.1103 42.8283 27.8706 42.9251 27.6696C43.022 27.4687 43.2254 27.3403 43.4482 27.3403H45.6057H45.6105Z" fill="#231F20"/>
<path id="Vector_5" d="M35.3363 21.0348C35.3242 21.2454 35.2782 21.4561 35.1934 21.6619C34.7866 22.6329 33.6679 23.0882 32.6969 22.6814C31.7259 22.2746 31.2707 21.1559 31.6775 20.1849C31.8906 19.6763 32.3022 19.3107 32.7817 19.1339C29.922 18.0637 26.7014 19.4342 25.5052 22.2746C24.2824 25.1876 25.6505 28.5413 28.5635 29.7641C31.4765 30.9869 34.8302 29.6188 36.0531 26.7058C36.8739 24.7541 36.5277 22.6063 35.3363 21.0324V21.0348Z" fill="#231F20"/>
<path id="Vector_6" d="M65.6358 21.4005C65.6237 21.6112 65.5777 21.8218 65.493 22.0277C65.0862 22.9987 63.9675 23.4539 62.9965 23.0471C62.0255 22.6403 61.5702 21.5216 61.977 20.5506C62.1901 20.0421 62.6018 19.6764 63.0812 19.4997C60.2215 18.4294 57.001 19.7999 55.8048 22.6403C54.5819 25.5533 55.9501 28.907 58.8631 30.1298C61.7761 31.3526 65.1298 29.9845 66.3526 27.0715C67.1735 25.1198 66.8272 22.972 65.6358 21.3981V21.4005Z" fill="#231F20"/>
<path id="Vector_7" d="M63.8657 0.188564C61.8051 -0.77275 61.3257 2.11119 57.001 4.99513C53.9185 7.04852 48.2934 6.94197 45.3877 6.68772C42.482 6.9444 36.857 7.04852 33.7745 4.99513C29.4498 2.11119 28.9703 -0.77275 26.9097 0.188564C25.8927 0.663167 23.4543 4.86922 21.1636 10.4434C24.4834 10.4676 27.7862 11.027 30.7937 11.8091C37.9079 10.3732 42.8549 14.9303 44.8308 17.221C45.2206 17.2937 45.5257 17.2985 45.9446 17.221C47.9205 14.9303 52.8675 10.3732 59.9818 11.8091C62.9892 11.027 66.292 10.4676 69.6118 10.4434C67.3187 4.86922 64.8803 0.663167 63.8657 0.188564Z" fill="url(#paint0_linear_175_2433)"/>
<path id="Vector_8" d="M61.7228 35.3989C61.6138 35.3989 61.5073 35.3989 61.3983 35.3989C58.8146 35.3989 56.7491 34.9413 55.0832 34.2245C49.8674 35.503 46.7025 36.4547 45.6202 37.9487C44.5257 36.4377 41.3027 35.4812 35.9755 34.1785C35.8085 34.2294 35.6365 34.2754 35.4598 34.3189C33.8326 34.98 31.8397 35.3989 29.3723 35.3989C29.3723 35.3989 29.1568 35.3989 29.0478 35.3989C26.8903 35.3674 23.8901 34.8589 20.2967 33.038C21.2798 52.3393 33.9609 57.4026 45.6177 60.5601C50.5865 59.2138 70.7983 53.5283 70.9364 32.791C68.1929 34.2511 65.0426 35.3505 61.7179 35.3989H61.7228ZM47.5089 42.4502C47.6639 42.2395 47.9617 42.1935 48.1748 42.3485C48.2571 42.409 50.1604 43.7626 51.7464 42.3751C51.945 42.2008 52.2452 42.2225 52.4196 42.4187C52.5939 42.6172 52.5721 42.9175 52.376 43.0918C51.6568 43.7214 50.8674 43.9466 50.1265 43.9466C49.0828 43.9466 48.1336 43.5011 47.613 43.1185C47.4023 42.9635 47.3563 42.6632 47.5113 42.4526L47.5089 42.4502ZM45.6226 45.9734C46.2449 45.9806 46.8018 45.7724 47.2813 45.351C47.4798 45.1767 47.7801 45.1985 47.952 45.3946C48.1264 45.5932 48.1046 45.8935 47.9084 46.0654C47.2571 46.6344 46.504 46.925 45.6686 46.925H45.5717C44.7363 46.925 43.9833 46.6368 43.3319 46.0654C43.1333 45.8935 43.114 45.5908 43.2883 45.3946C43.4627 45.1961 43.7629 45.1767 43.9615 45.351C44.4433 45.7724 44.9979 45.9806 45.6202 45.9734H45.6226ZM38.828 42.4187C39.0024 42.2201 39.3026 42.2008 39.5012 42.3751C41.0872 43.7626 42.9905 42.409 43.0728 42.3485C43.2859 42.1935 43.5813 42.2395 43.7387 42.4502C43.8937 42.6608 43.8501 42.9611 43.637 43.1161C43.1164 43.4986 42.1696 43.9442 41.1235 43.9442C40.3826 43.9442 39.5932 43.719 38.874 43.0894C38.6755 42.9151 38.6561 42.6148 38.8304 42.4163L38.828 42.4187ZM37.8376 46.8063C37.0022 46.8063 36.2492 46.5182 35.5978 45.9467C35.3992 45.7748 35.3799 45.4721 35.5542 45.2736C35.7286 45.075 36.0288 45.0556 36.2274 45.23C36.7092 45.6513 37.2662 45.8668 37.8933 45.8523C38.4987 45.8644 39.0629 45.6513 39.5448 45.23C39.7433 45.0556 40.0436 45.0774 40.2179 45.2736C40.3923 45.4721 40.3705 45.7724 40.1743 45.9467C39.523 46.5158 38.7699 46.8063 37.949 46.8063H37.8401H37.8376ZM41.5207 50.4119C40.6853 50.4119 39.9322 50.1237 39.2808 49.5523C39.0823 49.3803 39.0629 49.0777 39.2372 48.8791C39.4116 48.6805 39.7118 48.6612 39.9104 48.8355C40.3923 49.2568 40.9565 49.4675 41.5763 49.4578C42.1987 49.4699 42.7459 49.2568 43.2278 48.8355C43.4263 48.6612 43.7266 48.683 43.8985 48.8791C44.0729 49.0777 44.0511 49.3779 43.8549 49.5523C43.2036 50.1213 42.4505 50.4119 41.6272 50.4119C41.5909 50.4119 41.557 50.4119 41.5207 50.4119ZM48.0392 53.5404C47.3733 54.1215 46.6008 54.4097 45.7461 54.3976C45.734 54.3976 45.717 54.3976 45.7025 54.3976C45.6783 54.3976 45.6516 54.3976 45.625 54.3976C45.5984 54.3976 45.5717 54.3976 45.5475 54.3976C45.5306 54.3976 45.516 54.3976 45.5039 54.3976C44.6492 54.4097 43.8743 54.1215 43.2108 53.5404C43.0123 53.3685 42.9929 53.0658 43.1672 52.8672C43.3416 52.6687 43.6418 52.6493 43.8404 52.8236C44.3223 53.245 44.8816 53.4605 45.5088 53.4459C45.5451 53.4459 45.579 53.4459 45.6153 53.4459H45.642C45.6783 53.4459 45.7122 53.4459 45.7485 53.4459C46.3757 53.4605 46.9326 53.245 47.4169 52.8236C47.6154 52.6493 47.9157 52.6711 48.0876 52.8672C48.262 53.0658 48.2402 53.366 48.044 53.5404H48.0392ZM51.9668 49.5523C51.3154 50.1213 50.5623 50.4119 49.7269 50.4119C49.6906 50.4119 49.6567 50.4119 49.6204 50.4119C48.7971 50.4119 48.044 50.1237 47.3927 49.5523C47.1941 49.3803 47.1747 49.0777 47.3491 48.8791C47.5234 48.6805 47.8237 48.6612 48.0198 48.8355C48.5017 49.2568 49.0513 49.4699 49.6712 49.4578C50.2911 49.4675 50.8553 49.2568 51.3372 48.8355C51.5358 48.6612 51.836 48.683 52.0079 48.8791C52.1823 49.0777 52.1605 49.3779 51.9643 49.5523H51.9668ZM55.6474 45.9467C54.996 46.5158 54.2429 46.8063 53.4075 46.8063H53.2986C52.4777 46.8063 51.7246 46.5182 51.0733 45.9467C50.8747 45.7748 50.8553 45.4721 51.0297 45.2736C51.204 45.075 51.5043 45.0556 51.7028 45.23C52.1847 45.6513 52.7489 45.8644 53.3543 45.8523C53.9814 45.8668 54.5383 45.6513 55.0202 45.23C55.2188 45.0556 55.519 45.0774 55.6934 45.2736C55.8677 45.4721 55.8459 45.7724 55.6498 45.9467H55.6474Z" fill="url(#paint1_linear_175_2433)"/>
<path id="Vector_9" d="M45.3877 22.7128L46.9035 22.8024C48.0465 22.8509 48.245 23.696 49.1385 25.2868C50.0321 26.8753 51.6229 34.1784 61.7034 34.0283C71.7863 33.8781 81.7699 22.9017 83.2107 18.979C84.6514 15.0562 81.8208 12.1747 70.6942 11.826C59.5677 11.4773 47.9956 17.9838 47.9956 17.9838C47.9956 17.9838 46.613 18.6545 45.3877 18.6472C44.1625 18.6521 42.7798 17.9838 42.7798 17.9838C42.7798 17.9838 31.2077 11.4773 20.0812 11.826C8.95466 12.1747 6.124 15.0538 7.56475 18.979C9.00551 22.9017 18.9891 33.8781 29.072 34.0283C39.1549 34.1784 40.7434 26.8753 41.6369 25.2868C42.5304 23.6984 42.729 22.8533 43.8719 22.8024L45.3877 22.7128ZM60.4612 32.0403C53.5577 31.5923 49.1361 24.3425 52.8119 20.2696C56.4876 16.1967 64.5825 15.4025 64.5825 15.4025C66.7667 15.3032 75.709 14.4097 75.709 19.7224C75.709 25.035 67.3647 32.4882 60.4612 32.0403ZM15.064 19.7224C15.064 14.4073 24.0039 15.3032 26.1905 15.4025C26.1905 15.4025 34.2854 16.1967 37.9611 20.2696C41.6369 24.3425 37.2153 31.5947 30.3118 32.0403C23.4083 32.4882 15.064 25.0374 15.064 19.7224Z" fill="#009F4B"/>
<path id="Vector_10" d="M43.5038 61.4704C42.9106 60.3565 41.9178 59.7245 41.2834 60.0635C41.1042 60.1579 40.9758 60.3202 40.8935 60.5284C40.3124 59.7875 39.5617 59.4267 39.0484 59.7003C38.8522 59.8044 38.7142 59.9909 38.6343 60.2282C38.0653 59.5526 37.3582 59.2305 36.8666 59.492C36.2322 59.8286 36.2007 61.0054 36.794 62.1193C37.3872 63.2332 38.38 63.8652 39.0145 63.5262C39.2106 63.422 39.3486 63.2356 39.4285 62.9983C39.9976 63.6739 40.7046 63.9959 41.1962 63.7344C41.3754 63.64 41.5037 63.4777 41.586 63.2695C42.1672 64.0105 42.9178 64.3712 43.4312 64.0976C44.0656 63.761 44.0971 62.5842 43.5038 61.4704Z" fill="#231F20"/>
<path id="Vector_11" d="M46.659 61.6935C47.2522 60.5796 48.245 59.9476 48.8794 60.2866C49.0586 60.3811 49.187 60.5433 49.2693 60.7516C49.8504 60.0106 50.6011 59.6498 51.1144 59.9234C51.3106 60.0275 51.4486 60.214 51.5285 60.4513C52.0975 59.7757 52.8046 59.4537 53.2962 59.7152C53.9306 60.0518 53.9621 61.2286 53.3688 62.3424C52.7756 63.4563 51.7828 64.0883 51.1483 63.7493C50.9522 63.6452 50.8142 63.4587 50.7343 63.2214C50.1652 63.897 49.4582 64.2191 48.9666 63.9576C48.7874 63.8631 48.6591 63.7009 48.5768 63.4926C47.9956 64.2336 47.245 64.5944 46.7316 64.3208C46.0972 63.9842 46.0657 62.8074 46.659 61.6935Z" fill="#231F20"/>
</g>
</g>
<defs>
<linearGradient id="paint0_linear_175_2433" x1="21.1636" y1="8.63698" x2="69.6118" y2="8.63698" gradientUnits="userSpaceOnUse">
<stop stop-color="#003678"/>
<stop offset="0.13" stop-color="#03438C"/>
<stop offset="0.54" stop-color="#0C6ACA"/>
<stop offset="0.84" stop-color="#1282F0"/>
<stop offset="1" stop-color="#158CFF"/>
</linearGradient>
<linearGradient id="paint1_linear_175_2433" x1="20.3015" y1="46.6756" x2="70.9412" y2="46.6756" gradientUnits="userSpaceOnUse">
<stop stop-color="#003678"/>
<stop offset="0.13" stop-color="#03438C"/>
<stop offset="0.54" stop-color="#0C6ACA"/>
<stop offset="0.84" stop-color="#1282F0"/>
<stop offset="1" stop-color="#158CFF"/>
</linearGradient>
</defs>
</svg>
