<svg width="162" height="47" viewBox="0 0 162 47" fill="none" xmlns="http://www.w3.org/2000/svg">
<g id="Logo">
<g id="Group">
<path id="Vector" d="M98.2672 40.5956H87.47L77.6443 27.6683H74.4725V40.5956H65.6621V5.33951H79.8447C81.8023 5.33951 83.5082 5.4624 84.9595 5.70527C86.4108 5.95105 87.7539 6.46019 88.9857 7.23267C90.2498 8.03734 91.2505 9.06146 91.9937 10.2992C92.734 11.5398 93.1056 13.1141 93.1056 15.0218C93.1056 17.7197 92.497 19.9113 91.2827 21.5938C90.0655 23.2763 88.4415 24.6135 86.405 25.6083L98.2672 40.5956ZM84.0144 16.1367C84.0144 15.253 83.8447 14.4922 83.5052 13.8514C83.1658 13.2135 82.6011 12.719 81.811 12.3708C81.258 12.1338 80.6435 11.9846 79.9647 11.9202C79.2859 11.8588 78.4402 11.8266 77.4307 11.8266H74.4696V21.3217H77.0035C78.2354 21.3217 79.28 21.2485 80.1403 21.0964C81.0005 20.9471 81.7291 20.6282 82.3319 20.1366C82.8995 19.6948 83.3209 19.1651 83.5989 18.5507C83.8739 17.9362 84.0144 17.1315 84.0144 16.1367Z" fill="black"/>
<path id="Vector_2" d="M123.147 30.2491C123.147 31.7794 122.886 33.222 122.366 34.5709C121.845 35.9198 121.055 37.0697 119.998 38.0149C118.813 39.0887 117.418 39.8787 115.808 40.382C114.199 40.8882 112.344 41.1399 110.243 41.1399C108.68 41.1399 107.212 41.0814 105.839 40.9614C104.467 40.8443 103.258 40.6717 102.217 40.4523V33.301H103.021C103.732 33.5848 104.473 33.8481 105.248 34.0939C106.021 34.3397 107.016 34.4597 108.233 34.4597C109.795 34.4597 110.998 34.2373 111.844 33.7955C112.689 33.3536 113.283 32.7392 113.631 31.9491C113.994 31.1766 114.196 30.2813 114.234 29.263C114.272 28.2447 114.293 27.1123 114.293 25.8658V11.73H106.22V5.33658H123.15V30.2461L123.147 30.2491Z" fill="black"/>
<path id="Vector_3" d="M150.04 41.2833C144.753 41.2833 140.554 39.6856 137.443 36.4875C134.333 33.2922 132.779 28.7948 132.779 23.0012C132.779 17.2076 134.339 12.959 137.455 9.63499C140.571 6.31098 144.776 4.65191 150.064 4.65191C151.468 4.65191 152.732 4.73091 153.853 4.88892C154.973 5.04692 156.047 5.26638 157.074 5.55314C157.879 5.79015 158.757 6.11494 159.702 6.52459C160.65 6.93424 161.414 7.29122 161.999 7.58967V15.9963H161.101C160.673 15.6188 160.138 15.1623 159.491 14.6356C158.845 14.106 158.11 13.591 157.288 13.0848C156.466 12.5786 155.562 12.1485 154.576 11.7944C153.589 11.4404 152.559 11.2619 151.486 11.2619C150.207 11.2619 149.034 11.4638 147.968 11.8647C146.903 12.2685 145.888 12.9648 144.925 13.9597C144.042 14.8609 143.319 16.0753 142.76 17.6056C142.198 19.1359 141.92 20.9442 141.92 23.0276C141.92 25.2221 142.213 27.0655 142.795 28.5578C143.38 30.0501 144.144 31.2527 145.092 32.1686C146.008 33.0523 147.029 33.6931 148.159 34.0852C149.288 34.4802 150.412 34.6762 151.532 34.6762C152.653 34.6762 153.812 34.4831 154.871 34.0969C155.927 33.7106 156.82 33.2805 157.545 32.8065C158.336 32.3178 159.029 31.8204 159.629 31.3142C160.229 30.808 160.75 30.3603 161.191 29.9653H161.996V38.2519C161.349 38.5533 160.6 38.8956 159.746 39.2819C158.894 39.6681 158.017 39.9958 157.118 40.265C156.012 40.5957 154.979 40.8473 154.017 41.0229C153.054 41.1955 151.728 41.2833 150.04 41.2833Z" fill="black"/>
</g>
<g id="Group_2">
<path id="Vector_4" d="M27.6135 19.6646H29.1653C29.3255 19.6646 29.4718 19.7569 29.5415 19.9015C29.6112 20.0461 29.592 20.2185 29.491 20.3439L28.8222 21.1833L27.9392 22.291C27.8591 22.3903 27.7389 22.4495 27.6118 22.4495C27.4846 22.4495 27.3645 22.392 27.2843 22.291L26.4013 21.1833L25.7325 20.3439C25.6315 20.2185 25.6124 20.0461 25.682 19.9015C25.7517 19.7569 25.898 19.6646 26.0582 19.6646H27.61H27.6135Z" fill="#231F20"/>
<path id="Vector_5" d="M20.2251 15.1294C20.2164 15.2809 20.1833 15.4324 20.1223 15.5805C19.8297 16.2789 19.0251 16.6063 18.3267 16.3137C17.6283 16.0211 17.3009 15.2165 17.5935 14.5181C17.7467 14.1523 18.0428 13.8894 18.3877 13.7622C16.3308 12.9924 14.0144 13.9782 13.154 16.0211C12.2745 18.1163 13.2585 20.5285 15.3537 21.408C17.4489 22.2875 19.8611 21.3035 20.7406 19.2083C21.331 17.8046 21.082 16.2597 20.2251 15.1277V15.1294Z" fill="#231F20"/>
<path id="Vector_6" d="M42.0181 15.3924C42.0093 15.5439 41.9763 15.6954 41.9153 15.8435C41.6227 16.5419 40.8181 16.8693 40.1197 16.5767C39.4213 16.2841 39.0938 15.4795 39.3864 14.7811C39.5397 14.4153 39.8358 14.1523 40.1806 14.0252C38.1237 13.2554 35.8074 14.2412 34.947 16.2841C34.0675 18.3793 35.0515 20.7915 37.1467 21.671C39.2419 22.5505 41.6541 21.5665 42.5336 19.4713C43.124 18.0675 42.8749 16.5227 42.0181 15.3906V15.3924Z" fill="#231F20"/>
<path id="Vector_7" d="M40.7451 0.135626C39.2629 -0.555805 38.9181 1.51849 35.8075 3.59278C33.5904 5.06969 29.5446 4.99306 27.4546 4.81019C25.3646 4.9948 21.3188 5.06969 19.1017 3.59278C15.9911 1.51849 15.6463 -0.555805 14.1642 0.135626C13.4327 0.476987 11.6788 3.50221 10.0312 7.51147C12.419 7.52889 14.7946 7.9312 16.9577 8.49375C22.0747 7.46096 25.6329 10.7387 27.054 12.3863C27.3344 12.4386 27.5539 12.442 27.8552 12.3863C29.2764 10.7387 32.8345 7.46096 37.9515 8.49375C40.1146 7.9312 42.4902 7.52889 44.878 7.51147C43.2286 3.50221 41.4748 0.476987 40.7451 0.135626Z" fill="url(#paint0_linear_289_526)"/>
<path id="Vector_8" d="M39.2042 25.4608C39.1258 25.4608 39.0492 25.4608 38.9708 25.4608C37.1125 25.4608 35.6268 25.1316 34.4286 24.6161C30.6771 25.5357 28.4008 26.2202 27.6223 27.2947C26.835 26.208 24.5169 25.52 20.6853 24.583C20.5651 24.6196 20.4415 24.6527 20.3143 24.684C19.144 25.1595 17.7106 25.4608 15.9359 25.4608C15.9359 25.4608 15.7809 25.4608 15.7025 25.4608C14.1507 25.4382 11.9928 25.0724 9.4082 23.7627C10.1153 37.6453 19.2363 41.2871 27.6205 43.5582C31.1944 42.5898 45.7318 38.5005 45.8311 23.5851C43.8578 24.6353 41.592 25.426 39.2007 25.4608H39.2042ZM28.9807 30.5325C29.0922 30.3809 29.3064 30.3478 29.4597 30.4593C29.5189 30.5028 30.8878 31.4764 32.0286 30.4785C32.1714 30.3531 32.3874 30.3687 32.5128 30.5098C32.6382 30.6526 32.6225 30.8686 32.4814 30.994C31.9642 31.4468 31.3964 31.6088 30.8635 31.6088C30.1128 31.6088 29.4301 31.2883 29.0556 31.0131C28.9041 30.9017 28.871 30.6857 28.9825 30.5342L28.9807 30.5325ZM27.624 33.0665C28.0716 33.0718 28.4722 32.922 28.817 32.6189C28.9598 32.4935 29.1758 32.5092 29.2995 32.6503C29.4249 32.7931 29.4092 33.0091 29.2681 33.1327C28.7996 33.542 28.258 33.751 27.6571 33.751H27.5874C26.9866 33.751 26.4449 33.5438 25.9764 33.1327C25.8336 33.0091 25.8197 32.7914 25.9451 32.6503C26.0705 32.5075 26.2864 32.4935 26.4292 32.6189C26.7758 32.922 27.1747 33.0718 27.6223 33.0665H27.624ZM22.737 30.5098C22.8624 30.367 23.0783 30.3531 23.2211 30.4785C24.3619 31.4764 25.7308 30.5028 25.7901 30.4593C25.9433 30.3478 26.1558 30.3809 26.269 30.5325C26.3805 30.684 26.3491 30.8999 26.1959 31.0114C25.8214 31.2866 25.1404 31.607 24.388 31.607C23.8551 31.607 23.2873 31.4451 22.7701 30.9922C22.6272 30.8669 22.6133 30.6509 22.7387 30.5081L22.737 30.5098ZM22.0246 33.6657C21.4238 33.6657 20.8821 33.4584 20.4136 33.0474C20.2708 32.9237 20.2569 32.706 20.3823 32.5632C20.5077 32.4204 20.7236 32.4065 20.8664 32.5319C21.213 32.8349 21.6136 32.9899 22.0647 32.9795C22.5001 32.9882 22.9059 32.8349 23.2525 32.5319C23.3953 32.4065 23.6113 32.4221 23.7367 32.5632C23.8621 32.706 23.8464 32.922 23.7053 33.0474C23.2368 33.4567 22.6952 33.6657 22.1048 33.6657H22.0264H22.0246ZM24.6737 36.259C24.0728 36.259 23.5312 36.0517 23.0627 35.6407C22.9198 35.517 22.9059 35.2993 23.0313 35.1565C23.1567 35.0137 23.3727 34.9998 23.5155 35.1252C23.8621 35.4282 24.2679 35.5797 24.7137 35.5728C25.1613 35.5815 25.5549 35.4282 25.9015 35.1252C26.0443 34.9998 26.2603 35.0154 26.384 35.1565C26.5094 35.2993 26.4937 35.5153 26.3526 35.6407C25.8841 36.05 25.3425 36.259 24.7503 36.259C24.7242 36.259 24.6998 36.259 24.6737 36.259ZM29.3622 38.5092C28.8832 38.9272 28.3276 39.1344 27.7128 39.1257C27.7041 39.1257 27.6919 39.1257 27.6815 39.1257C27.6641 39.1257 27.6449 39.1257 27.6258 39.1257C27.6066 39.1257 27.5874 39.1257 27.57 39.1257C27.5578 39.1257 27.5474 39.1257 27.5387 39.1257C26.9239 39.1344 26.3665 38.9272 25.8893 38.5092C25.7465 38.3855 25.7326 38.1678 25.858 38.025C25.9834 37.8822 26.1993 37.8682 26.3422 37.9936C26.6887 38.2967 27.0911 38.4517 27.5422 38.4412C27.5683 38.4412 27.5927 38.4412 27.6188 38.4412H27.6379C27.6641 38.4412 27.6884 38.4412 27.7146 38.4412C28.1657 38.4517 28.5662 38.2967 28.9146 37.9936C29.0574 37.8682 29.2733 37.8839 29.397 38.025C29.5224 38.1678 29.5067 38.3838 29.3656 38.5092H29.3622ZM32.1871 35.6407C31.7186 36.05 31.177 36.259 30.5761 36.259C30.55 36.259 30.5256 36.259 30.4995 36.259C29.9073 36.259 29.3656 36.0517 28.8971 35.6407C28.7543 35.517 28.7404 35.2993 28.8658 35.1565C28.9912 35.0137 29.2072 34.9998 29.3482 35.1252C29.6948 35.4282 30.0902 35.5815 30.536 35.5728C30.9819 35.5797 31.3877 35.4282 31.7343 35.1252C31.8771 34.9998 32.0931 35.0154 32.2167 35.1565C32.3421 35.2993 32.3264 35.5153 32.1854 35.6407H32.1871ZM34.8344 33.0474C34.3659 33.4567 33.8242 33.6657 33.2234 33.6657H33.145C32.5546 33.6657 32.0129 33.4584 31.5444 33.0474C31.4016 32.9237 31.3877 32.706 31.5131 32.5632C31.6385 32.4204 31.8545 32.4065 31.9973 32.5319C32.3439 32.8349 32.7497 32.9882 33.1851 32.9795C33.6361 32.9899 34.0367 32.8349 34.3833 32.5319C34.5261 32.4065 34.7421 32.4221 34.8675 32.5632C34.9929 32.706 34.9772 32.922 34.8361 33.0474H34.8344Z" fill="url(#paint1_linear_289_526)"/>
<path id="Vector_9" d="M27.4541 16.3364L28.5444 16.4008C29.3664 16.4356 29.5092 17.0435 30.1519 18.1877C30.7946 19.3302 31.9388 24.583 39.1893 24.475C46.4415 24.3671 53.6222 16.4722 54.6585 13.6507C55.6948 10.8293 53.6588 8.75674 45.656 8.50594C37.6531 8.25515 29.3299 12.9349 29.3299 12.9349C29.3299 12.9349 28.3354 13.4174 27.4541 13.4121C26.5728 13.4156 25.5784 12.9349 25.5784 12.9349C25.5784 12.9349 17.2551 8.25515 9.25223 8.50594C1.2494 8.75674 -0.786575 10.8275 0.2497 13.6507C1.28598 16.4722 8.46675 24.3671 15.7189 24.475C22.9711 24.583 24.1136 19.3302 24.7563 18.1877C25.399 17.0452 25.5418 16.4374 26.3638 16.4008L27.4541 16.3364ZM38.2958 23.0451C33.3304 22.7229 30.1502 17.5085 32.794 14.579C35.4378 11.6496 41.2601 11.0783 41.2601 11.0783C42.831 11.0069 49.2629 10.3643 49.2629 14.1854C49.2629 18.0066 43.2612 23.3674 38.2958 23.0451ZM5.64356 14.1854C5.64356 10.3625 12.0737 11.0069 13.6464 11.0783C13.6464 11.0783 19.4687 11.6496 22.1125 14.579C24.7563 17.5085 21.5761 22.7247 16.6107 23.0451C11.6452 23.3674 5.64356 18.0083 5.64356 14.1854Z" fill="#009F4B"/>
<path id="Vector_10" d="M26.0985 44.213C25.6718 43.4119 24.9577 42.9573 24.5014 43.2011C24.3725 43.2691 24.2802 43.3858 24.221 43.5355C23.803 43.0026 23.2631 42.7431 22.8939 42.9399C22.7528 43.0148 22.6535 43.1489 22.596 43.3196C22.1868 42.8337 21.6782 42.602 21.3246 42.7901C20.8683 43.0322 20.8457 43.8786 21.2724 44.6798C21.6991 45.4809 22.4132 45.9355 22.8695 45.6917C23.0106 45.6168 23.1098 45.4827 23.1673 45.312C23.5766 45.7979 24.0851 46.0296 24.4387 45.8415C24.5676 45.7735 24.6599 45.6569 24.7191 45.5071C25.1371 46.04 25.677 46.2995 26.0462 46.1027C26.5025 45.8606 26.5252 45.0142 26.0985 44.213Z" fill="#231F20"/>
<path id="Vector_11" d="M28.3681 44.3733C28.7948 43.5721 29.5089 43.1175 29.9652 43.3614C30.0941 43.4293 30.1864 43.546 30.2456 43.6958C30.6636 43.1628 31.2035 42.9033 31.5727 43.1001C31.7138 43.175 31.8131 43.3091 31.8705 43.4798C32.2798 42.9939 32.7884 42.7623 33.1419 42.9503C33.5982 43.1924 33.6209 44.0389 33.1942 44.84C32.7675 45.6412 32.0534 46.0957 31.5971 45.8519C31.456 45.777 31.3568 45.6429 31.2993 45.4722C30.89 45.9582 30.3814 46.1898 30.0279 46.0017C29.899 45.9338 29.8067 45.8171 29.7475 45.6673C29.3295 46.2002 28.7896 46.4598 28.4203 46.2629C27.964 46.0209 27.9414 45.1744 28.3681 44.3733Z" fill="#231F20"/>
</g>
</g>
<defs>
<linearGradient id="paint0_linear_289_526" x1="10.0312" y1="6.21221" x2="44.878" y2="6.21221" gradientUnits="userSpaceOnUse">
<stop stop-color="#003678"/>
<stop offset="0.13" stop-color="#03438C"/>
<stop offset="0.54" stop-color="#0C6ACA"/>
<stop offset="0.84" stop-color="#1282F0"/>
<stop offset="1" stop-color="#158CFF"/>
</linearGradient>
<linearGradient id="paint1_linear_289_526" x1="9.41169" y1="33.5716" x2="45.8346" y2="33.5716" gradientUnits="userSpaceOnUse">
<stop stop-color="#003678"/>
<stop offset="0.13" stop-color="#03438C"/>
<stop offset="0.54" stop-color="#0C6ACA"/>
<stop offset="0.84" stop-color="#1282F0"/>
<stop offset="1" stop-color="#158CFF"/>
</linearGradient>
</defs>
</svg>
